<svg width="26" height="26" viewBox="0 0 26 26" fill="none" xmlns="http://www.w3.org/2000/svg">
<rect width="26" height="26" rx="6" fill="#1E3050"/>
<path fill-rule="evenodd" clip-rule="evenodd" d="M6.38704 12.6201C10.1768 10.969 12.7039 9.88047 13.9684 9.35455C17.5786 7.85293 18.3288 7.59208 18.8177 7.58347C18.9253 7.58157 19.1657 7.60822 19.3215 7.73461C19.453 7.84133 19.4892 7.98548 19.5065 8.08666C19.5238 8.18784 19.5454 8.41833 19.5282 8.59843C19.3326 10.654 18.4861 15.6424 18.0554 17.9448C17.8732 18.919 17.5143 19.2456 17.167 19.2776C16.412 19.347 15.8388 18.7786 15.1076 18.2993C13.9634 17.5493 13.317 17.0824 12.2064 16.3506C10.9229 15.5048 11.7549 15.0399 12.4864 14.2801C12.6778 14.0813 16.0041 11.0558 16.0685 10.7814C16.0765 10.7471 16.084 10.6191 16.008 10.5515C15.932 10.484 15.8198 10.5071 15.7388 10.5255C15.6241 10.5515 13.7962 11.7596 10.2554 14.1498C9.73653 14.5061 9.2666 14.6797 8.84556 14.6706C8.38139 14.6605 7.48852 14.4081 6.82476 14.1924C6.01063 13.9277 5.36358 13.7878 5.41992 13.3384C5.44927 13.1043 5.77164 12.8649 6.38704 12.6201Z" fill="white"/>
</svg>
