<svg width="26" height="26" viewBox="0 0 26 26" fill="none" xmlns="http://www.w3.org/2000/svg">
<rect width="26" height="26" rx="6" fill="#1E3050"/>
<g clip-path="url(#clip0_1_146)">
<path d="M19.7704 6.05333C19.32 5.6378 17.5002 4.31672 13.4467 4.29877C13.4467 4.29877 8.66653 4.01052 6.33628 6.14796C5.03913 7.44538 4.58282 9.34379 4.53469 11.6974C4.48655 14.0511 4.42428 18.4619 8.67605 19.6579H8.68013L8.67741 21.4829C8.67741 21.4829 8.65022 22.2218 9.13672 22.3724C9.72519 22.5551 10.0706 21.9936 10.6324 21.3883C10.9408 21.0559 11.3666 20.5678 11.6875 20.1947C14.5954 20.4395 16.8318 19.8801 17.0858 19.7974C17.6729 19.6071 20.9952 19.1815 21.5355 14.7709C22.0933 10.2249 21.2658 7.34939 19.7704 6.05333ZM20.2631 14.4448C19.8071 18.1274 17.1124 18.3589 16.6156 18.5182C16.4043 18.5862 14.4401 19.0749 11.9701 18.9136C11.9701 18.9136 10.1296 21.134 9.55469 21.7113C9.46495 21.8016 9.35943 21.838 9.289 21.8201C9.19002 21.7959 9.16282 21.6787 9.16391 21.5074C9.16554 21.2626 9.17968 18.4747 9.17968 18.4747C5.58301 17.4761 5.79268 13.722 5.83347 11.7562C5.87426 9.79032 6.24355 8.17989 7.34056 7.09676C9.31157 5.31148 13.3719 5.57825 13.3719 5.57825C16.8008 5.59321 18.4438 6.62576 18.8248 6.97167C20.0899 8.0548 20.7344 10.6467 20.2631 14.4437V14.4448Z" fill="white"/>
<path d="M15.116 11.5952C15.0714 10.6962 14.6147 10.224 13.746 10.1787" stroke="white" stroke-width="0.45849" stroke-linecap="round" stroke-linejoin="round"/>
<path d="M16.2913 11.9893C16.3094 11.1518 16.0613 10.452 15.547 9.88997C15.0303 9.32597 14.3151 9.01541 13.3973 8.94824" stroke="white" stroke-width="0.45849" stroke-linecap="round" stroke-linejoin="round"/>
<path d="M17.4962 12.4596C17.4852 11.0062 17.0509 9.86148 16.1934 9.02554C15.3359 8.1896 14.2694 7.76718 12.994 7.7583" stroke="white" stroke-width="0.45849" stroke-linecap="round" stroke-linejoin="round"/>
<path d="M13.7914 14.6642C13.7914 14.6642 14.1137 14.6914 14.2872 14.4777L14.6255 14.0521C14.7887 13.8411 15.1824 13.7065 15.568 13.9213C15.857 14.0861 16.1375 14.2652 16.4086 14.4581C16.6645 14.6463 17.1885 15.0836 17.1901 15.0836C17.4398 15.2943 17.4974 15.6038 17.3275 15.9301C17.3275 15.932 17.3261 15.9353 17.3261 15.9369C17.1389 16.2614 16.9013 16.5541 16.6221 16.8038C16.6188 16.8055 16.6188 16.8071 16.6158 16.8087C16.3732 17.0114 16.1349 17.1266 15.9009 17.1544C15.8664 17.1604 15.8314 17.1626 15.7965 17.1609C15.6932 17.1619 15.5906 17.1461 15.4924 17.1141L15.4848 17.103C15.1242 17.0013 14.5222 16.7467 13.5195 16.1936C12.9393 15.8773 12.3869 15.5124 11.8683 15.1029C11.6083 14.8977 11.3604 14.6778 11.1256 14.4442L11.1006 14.4192L11.0756 14.3942L11.0506 14.3689C11.0421 14.3607 11.034 14.3523 11.0256 14.3439C10.792 14.1091 10.5721 13.8612 10.3669 13.6012C9.95743 13.0826 9.59255 12.5304 9.27617 11.9503C8.72304 10.9474 8.46851 10.3458 8.3668 9.98469L8.35565 9.97708C8.32377 9.87893 8.30807 9.77624 8.30915 9.67305C8.30725 9.63812 8.30935 9.60308 8.31541 9.56862C8.34459 9.33512 8.45999 9.09672 8.66158 8.85342C8.66322 8.85043 8.66485 8.85043 8.66648 8.84717C8.9162 8.56797 9.20886 8.33039 9.53342 8.14339C9.53505 8.14339 9.53832 8.14176 9.54022 8.14176C9.86655 7.9718 10.176 8.02945 10.3865 8.27773C10.3881 8.27936 10.8246 8.80339 11.012 9.05928C11.2048 9.33061 11.384 9.61142 11.5488 9.90066C11.7636 10.286 11.629 10.6806 11.418 10.8432L10.9924 11.1815C10.7775 11.355 10.8058 11.6772 10.8058 11.6772C10.8058 11.6772 11.4362 14.063 13.7914 14.6642Z" fill="white"/>
</g>
<defs>
<clipPath id="clip0_1_146">
<rect width="17.1863" height="18.1229" fill="white" transform="translate(4.52429 4.28516)"/>
</clipPath>
</defs>
</svg>
