<svg width="26" height="26" viewBox="0 0 26 26" fill="none" xmlns="http://www.w3.org/2000/svg">
<rect width="26" height="26" rx="6" fill="#1E3050"/>
<path fill-rule="evenodd" clip-rule="evenodd" d="M6.38717 12.6201C10.1769 10.969 12.704 9.88047 13.9685 9.35455C17.5787 7.85293 18.3289 7.59208 18.8178 7.58347C18.9254 7.58157 19.1658 7.60822 19.3216 7.73461C19.4531 7.84133 19.4893 7.98548 19.5066 8.08666C19.5239 8.18784 19.5455 8.41833 19.5284 8.59843C19.3327 10.654 18.4862 15.6424 18.0555 17.9448C17.8733 18.919 17.5145 19.2456 17.1671 19.2776C16.4122 19.347 15.8389 18.7786 15.1077 18.2993C13.9635 17.5493 13.3171 17.0824 12.2065 16.3506C10.923 15.5048 11.7551 15.0399 12.4865 14.2801C12.678 14.0813 16.0042 11.0558 16.0686 10.7814C16.0767 10.7471 16.0841 10.6191 16.0081 10.5515C15.9321 10.484 15.8199 10.5071 15.739 10.5255C15.6242 10.5515 13.7964 11.7596 10.2555 14.1498C9.73665 14.5061 9.26672 14.6797 8.84568 14.6706C8.38151 14.6605 7.48864 14.4081 6.82488 14.1924C6.01075 13.9277 5.3637 13.7878 5.42005 13.3384C5.44939 13.1043 5.77177 12.8649 6.38717 12.6201Z" fill="white"/>
<path d="M5.11414 20.5616L6.22881 16.5139C5.53967 15.3258 5.17815 13.9803 5.18192 12.6048C5.18192 8.2947 8.70671 4.79041 13.0336 4.79041C15.1349 4.79041 17.1082 5.6037 18.5882 7.08038C20.0719 8.55705 20.8891 10.521 20.8853 12.6085C20.8853 16.9186 17.3605 20.4229 13.0299 20.4229H13.0261C11.7118 20.4229 10.4202 20.0931 9.27158 19.471L5.11414 20.5616ZM9.47117 18.058L9.70842 18.2004C10.7101 18.7926 11.8587 19.1037 13.0299 19.1074H13.0336C16.63 19.1074 19.5598 16.1953 19.5598 12.6123C19.5598 10.877 18.8819 9.24667 17.6505 8.01736C16.4191 6.78804 14.7772 6.11342 13.0336 6.11342C9.43728 6.10967 6.50748 9.0218 6.50748 12.6048C6.50748 13.8304 6.85017 15.0259 7.50542 16.0604L7.65982 16.3077L7.0008 18.7026L9.47117 18.058Z" fill="white"/>
<path d="M5.38904 20.2882L6.46606 16.3791C5.79951 15.236 5.44929 13.9355 5.44929 12.6088C5.45306 8.44857 8.85358 5.06421 13.0336 5.06421C15.0634 5.06421 16.9651 5.85127 18.3961 7.27548C19.8271 8.69968 20.6142 10.5961 20.6142 12.6125C20.6142 16.7727 17.2099 20.157 13.0336 20.157H13.0299C11.7608 20.157 10.5143 19.8385 9.40715 19.2388L5.38904 20.2882Z" fill="#1E3050"/>
<path d="M5.11414 20.5616L6.22881 16.5139C5.53967 15.3258 5.17815 13.9803 5.18192 12.6048C5.18192 8.2947 8.70671 4.79041 13.0336 4.79041C15.1349 4.79041 17.1082 5.6037 18.5882 7.08038C20.0719 8.55705 20.8891 10.521 20.8853 12.6085C20.8853 16.9186 17.3605 20.4229 13.0299 20.4229H13.0261C11.7118 20.4229 10.4202 20.0931 9.27158 19.471L5.11414 20.5616ZM9.47117 18.058L9.70842 18.2004C10.7101 18.7926 11.8587 19.1037 13.0299 19.1074H13.0336C16.63 19.1074 19.5598 16.1953 19.5598 12.6123C19.5598 10.877 18.8819 9.24667 17.6505 8.01736C16.4191 6.78804 14.7772 6.11342 13.0336 6.11342C9.43728 6.10967 6.50748 9.0218 6.50748 12.6048C6.50748 13.8304 6.85017 15.0259 7.50542 16.0604L7.65982 16.3077L7.0008 18.7026L9.47117 18.058Z" fill="white"/>
<path fill-rule="evenodd" clip-rule="evenodd" d="M11.0718 9.33667C10.9249 9.0106 10.7705 9.0031 10.6312 8.99935C10.5182 8.99561 10.3864 8.99561 10.2546 8.99561C10.1228 8.99561 9.91191 9.04433 9.73115 9.23922C9.55039 9.43411 9.04578 9.90635 9.04578 10.8696C9.04578 11.829 9.74998 12.7585 9.84789 12.8897C9.9458 13.0209 11.2073 15.056 13.1995 15.8393C14.8564 16.4914 15.1953 16.3602 15.5531 16.3265C15.9108 16.2928 16.713 15.8543 16.8786 15.397C17.0406 14.9398 17.0406 14.55 16.9916 14.4676C16.9427 14.3851 16.8109 14.3364 16.615 14.2389C16.4192 14.1415 15.4552 13.6692 15.2744 13.6018C15.0937 13.5381 14.9619 13.5043 14.8338 13.6992C14.702 13.8941 14.3254 14.3326 14.2125 14.4638C14.0995 14.595 13.9827 14.61 13.7869 14.5125C13.5911 14.4151 12.9584 14.2089 12.2091 13.5418C11.6254 13.0246 11.2299 12.3837 11.117 12.1888C11.004 11.9939 11.1057 11.889 11.2036 11.7915C11.2902 11.7053 11.3994 11.5629 11.4973 11.4505C11.5952 11.338 11.6291 11.2556 11.6931 11.1244C11.7572 10.9932 11.727 10.8808 11.6781 10.7834C11.6291 10.6897 11.245 9.7227 11.0718 9.33667Z" fill="white"/>
</svg>
