<svg width="60" height="60" viewBox="0 0 60 60" fill="none" xmlns="http://www.w3.org/2000/svg">
<rect x="60" y="60" width="60" height="60" rx="30" transform="rotate(-180 60 60)" fill="white"/>
<g clip-path="url(#clip0_1_44)">
<path d="M33.4959 24.241L27.3229 30.101L33.4959 35.959C33.6429 36.0947 33.7601 36.2595 33.8403 36.4427C33.9205 36.626 33.9619 36.8239 33.9619 37.024C33.9619 37.224 33.9205 37.4219 33.8403 37.6052C33.7601 37.7885 33.6429 37.9532 33.4959 38.089C33.1914 38.373 32.7904 38.531 32.3739 38.531C31.9575 38.531 31.5565 38.373 31.2519 38.089L23.9499 31.157C23.3299 30.568 23.3299 29.617 23.9499 29.028L31.2519 22.097C31.5565 21.8129 31.9575 21.6549 32.3739 21.6549C32.7904 21.6549 33.1914 21.8129 33.4959 22.097C33.6412 22.2352 33.7568 22.4015 33.8358 22.5858C33.9148 22.7701 33.9555 22.9685 33.9555 23.169C33.9555 23.3695 33.9148 23.5679 33.8358 23.7522C33.7568 23.9364 33.6412 24.1027 33.4959 24.241Z" fill="#2D3E4F"/>
</g>
<defs>
<clipPath id="clip0_1_44">
<rect width="21" height="21" fill="white" transform="translate(40.5 40.5) rotate(-180)"/>
</clipPath>
</defs>
</svg>
