<svg width="42" height="27" viewBox="0 0 42 27" fill="none" xmlns="http://www.w3.org/2000/svg">
<g clip-path="url(#clip0_1_1648)">
<path fill-rule="evenodd" clip-rule="evenodd" d="M6.73651 16.0114H4.92238C2.09264 16.0114 4.14846 9.97668 6.53081 9.97668H9.39704C9.85647 9.97668 10.6667 10.0615 11.0659 8.92028L11.6827 7.14746H7.75229C5.62383 7.14746 3.96703 7.90021 2.76982 9.16317C0.70179 11.3245 0.000511527 14.7001 0.496262 16.3149C0.967912 17.8085 2.2498 18.7919 4.25725 18.8162L5.81731 18.8284H7.74023L8.21189 17.4078C8.56253 16.3999 7.77638 16.0114 6.73651 16.0114ZM28.8187 13.5101L29.4114 11.5794H23.0866C22.0345 11.5794 21.5629 11.8709 21.3814 12.478L20.7888 14.4087H27.1137C28.1658 14.4087 28.6375 14.1172 28.8187 13.5101ZM19.8457 16.9099L19.253 18.8404H25.5778C26.6178 18.8404 27.1015 18.5492 27.2829 17.9421L27.8756 16.0114H21.5507C20.5108 16.0114 20.0391 16.3028 19.8457 16.9099ZM30.2943 9.09018L30.8868 7.15968H24.562C23.5099 7.15968 23.0382 7.45093 22.8568 8.05806L22.2642 9.98873H28.5891C29.6291 9.98873 30.1006 9.6973 30.2943 9.09018ZM20.7404 9.47886C20.4745 7.68177 19.5191 7.15968 17.1972 7.15968H12.9645L10.4975 14.4087H12.0576C12.9886 14.4087 13.4603 14.4207 13.9562 13.0851L14.984 9.97668H16.5562C17.8986 9.97668 17.5962 11.6645 16.919 13.3035C16.3143 14.7486 15.2622 16.0234 13.9924 16.0234H11.3682C10.3161 16.0234 9.83237 16.3149 9.63889 16.922L8.98581 18.8527H10.9086L12.7952 18.8404C14.464 18.8284 15.8306 18.707 17.427 17.262C19.1199 15.72 21.0792 11.7616 20.7404 9.47886ZM42.0005 7.14746H38.3363L34.8896 10.8265C34.4906 11.2515 34.0794 11.6765 33.6804 12.1743H33.644L35.3613 7.14746H32.3742L28.3473 18.8404H31.3341L32.616 15.1614L33.9463 14.0322L34.9986 17.3592C35.3249 18.3913 35.6637 18.8404 36.3892 18.8404H38.6749L36.3288 12.3079L42.0005 7.14746Z" fill="#006DAB"/>
</g>
<defs>
<clipPath id="clip0_1_1648">
<rect width="42" height="27" fill="white"/>
</clipPath>
</defs>
</svg>
