<svg width="20" height="18" viewBox="0 0 20 18" fill="none" xmlns="http://www.w3.org/2000/svg">
<path d="M2.22222 1.125C0.996528 1.125 0 2.13398 0 3.375V4.5H20V3.375C20 2.13398 19.0035 1.125 17.7778 1.125H2.22222ZM20 7.875H0V14.625C0 15.866 0.996528 16.875 2.22222 16.875H17.7778C19.0035 16.875 20 15.866 20 14.625V7.875ZM3.88889 12.375H6.11111C6.41667 12.375 6.66667 12.6281 6.66667 12.9375C6.66667 13.2469 6.41667 13.5 6.11111 13.5H3.88889C3.58333 13.5 3.33333 13.2469 3.33333 12.9375C3.33333 12.6281 3.58333 12.375 3.88889 12.375ZM7.77778 12.9375C7.77778 12.6281 8.02778 12.375 8.33333 12.375H12.7778C13.0833 12.375 13.3333 12.6281 13.3333 12.9375C13.3333 13.2469 13.0833 13.5 12.7778 13.5H8.33333C8.02778 13.5 7.77778 13.2469 7.77778 12.9375Z" fill="#006DAB"/>
</svg>
