<svg width="14" height="12" viewBox="0 0 14 12" fill="none" xmlns="http://www.w3.org/2000/svg">
<g clip-path="url(#clip0_1_4343)">
<path d="M0.805 4.625H13.195C13.6391 4.625 14 4.27051 14 3.83437C14 3.67754 13.9519 3.525 13.8644 3.39609L12.2106 0.959766C12.0159 0.671875 11.69 0.5 11.3378 0.5H2.66219C2.31219 0.5 1.98406 0.671875 1.78938 0.959766L0.135625 3.39395C0.048125 3.525 0 3.67754 0 3.83223C0 4.27051 0.360938 4.625 0.805 4.625ZM1.4 5.3125V8.75V10.4688C1.4 11.0381 1.87031 11.5 2.45 11.5H7.35C7.92969 11.5 8.4 11.0381 8.4 10.4688V8.75V5.3125H7V8.75H2.8V5.3125H1.4ZM11.2 5.3125V10.8125C11.2 11.1928 11.5128 11.5 11.9 11.5C12.2872 11.5 12.6 11.1928 12.6 10.8125V5.3125H11.2Z" fill="#006DAB" fill-opacity="0.8"/>
</g>
<defs>
<clipPath id="clip0_1_4343">
<rect width="14" height="11" fill="white" transform="translate(0 0.5)"/>
</clipPath>
</defs>
</svg>
