<svg width="15" height="12" viewBox="0 0 15 12" fill="none" xmlns="http://www.w3.org/2000/svg">
<g clip-path="url(#clip0_1_4349)">
<path d="M1.06876 0.5C0.478715 0.5 0 0.961914 0 1.53125V8.40625C0 8.97559 0.478715 9.4375 1.06876 9.4375H1.42501C1.42501 10.5762 2.38244 11.5 3.56253 11.5C4.74262 11.5 5.70005 10.5762 5.70005 9.4375H8.55007C8.55007 10.5762 9.5075 11.5 10.6876 11.5C11.8677 11.5 12.8251 10.5762 12.8251 9.4375H13.5376C13.9317 9.4375 14.2501 9.13027 14.2501 8.75C14.2501 8.36973 13.9317 8.0625 13.5376 8.0625V6.6875V6V5.59824C13.5376 5.23301 13.3884 4.88281 13.1212 4.625L11.4001 2.96426C11.1329 2.70645 10.77 2.5625 10.3915 2.5625H9.26258V1.53125C9.26258 0.961914 8.78386 0.5 8.19382 0.5H1.06876ZM9.26258 3.9375H10.3915L12.1126 5.59824V6H9.26258V3.9375ZM2.49377 9.4375C2.49377 9.164 2.60637 8.90169 2.8068 8.7083C3.00724 8.5149 3.27908 8.40625 3.56253 8.40625C3.84598 8.40625 4.11783 8.5149 4.31826 8.7083C4.51869 8.90169 4.63129 9.164 4.63129 9.4375C4.63129 9.711 4.51869 9.97331 4.31826 10.1667C4.11783 10.3601 3.84598 10.4688 3.56253 10.4688C3.27908 10.4688 3.00724 10.3601 2.8068 10.1667C2.60637 9.97331 2.49377 9.711 2.49377 9.4375ZM10.6876 8.40625C10.971 8.40625 11.2429 8.5149 11.4433 8.7083C11.6437 8.90169 11.7564 9.164 11.7564 9.4375C11.7564 9.711 11.6437 9.97331 11.4433 10.1667C11.2429 10.3601 10.971 10.4688 10.6876 10.4688C10.4041 10.4688 10.1323 10.3601 9.93186 10.1667C9.73143 9.97331 9.61883 9.711 9.61883 9.4375C9.61883 9.164 9.73143 8.90169 9.93186 8.7083C10.1323 8.5149 10.4041 8.40625 10.6876 8.40625Z" fill="#006DAB" fill-opacity="0.8"/>
</g>
<defs>
<clipPath id="clip0_1_4349">
<rect width="14.2501" height="11" fill="white" transform="translate(0 0.5)"/>
</clipPath>
</defs>
</svg>
