<svg width="19" height="19" viewBox="0 0 19 19" fill="none" xmlns="http://www.w3.org/2000/svg">
<path d="M2.375 1.1875C1.06504 1.1875 0 2.25254 0 3.5625V15.4375C0 16.7475 1.06504 17.8125 2.375 17.8125H16.625C17.935 17.8125 19 16.7475 19 15.4375V7.125C19 5.81504 17.935 4.75 16.625 4.75H2.96875C2.64219 4.75 2.375 4.48281 2.375 4.15625C2.375 3.82969 2.64219 3.5625 2.96875 3.5625H16.625C17.2818 3.5625 17.8125 3.03184 17.8125 2.375C17.8125 1.71816 17.2818 1.1875 16.625 1.1875H2.375ZM15.4375 10.0938C15.7524 10.0938 16.0545 10.2189 16.2772 10.4416C16.4999 10.6643 16.625 10.9663 16.625 11.2812C16.625 11.5962 16.4999 11.8982 16.2772 12.1209C16.0545 12.3436 15.7524 12.4688 15.4375 12.4688C15.1226 12.4688 14.8205 12.3436 14.5978 12.1209C14.3751 11.8982 14.25 11.5962 14.25 11.2812C14.25 10.9663 14.3751 10.6643 14.5978 10.4416C14.8205 10.2189 15.1226 10.0938 15.4375 10.0938Z" fill="#006DAB"/>
</svg>
