<svg width="18" height="16" viewBox="0 0 18 16" fill="none" xmlns="http://www.w3.org/2000/svg">
<path d="M10.0004 6H10.5348C11.2254 7.19688 12.5192 8 14.0004 8C14.3442 8 14.6817 7.95625 15.0004 7.875V8V9V15C15.0004 15.5531 14.5536 16 14.0004 16C13.4473 16 13.0004 15.5531 13.0004 15V10.6L8.75043 14H10.5004C11.0536 14 11.5004 14.4469 11.5004 15C11.5004 15.5531 11.0536 16 10.5004 16H6.00043C4.34418 16 3.00043 14.6562 3.00043 13V6.01562C3.00043 5.5125 2.62543 5.08437 2.12543 5.02187L1.87855 4.99062C1.33168 4.92188 0.941052 4.42188 1.0098 3.875C1.07855 3.32812 1.57855 2.9375 2.12543 3.00625L2.3723 3.0375C3.8723 3.225 5.00043 4.5 5.00043 6.01562V8.68125C6.07543 7.06562 7.91293 6 10.0004 6ZM15.0004 6.82812C14.6879 6.9375 14.3504 7 14.0004 7C13.1129 7 12.3129 6.6125 11.7629 6C11.6473 5.87187 11.5442 5.73438 11.4536 5.5875C11.1661 5.125 11.0004 4.58125 11.0004 4V1V0.375V0.334375C11.0004 0.15 11.1473 0.003125 11.3317 0H11.3379C11.4411 0 11.5379 0.05 11.6004 0.13125V0.134375L12.0004 0.665625L12.8504 1.8L13.0004 2H15.0004L15.1504 1.8L16.0004 0.665625L16.4004 0.134375V0.13125C16.4629 0.05 16.5598 0 16.6629 0H16.6692C16.8536 0.003125 17.0004 0.15 17.0004 0.334375V0.375V1V4C17.0004 4.54063 16.8567 5.05 16.6067 5.4875C16.2536 6.10625 15.6817 6.5875 15.0004 6.82812ZM13.5004 4C13.5004 3.86739 13.4477 3.74021 13.354 3.64645C13.2602 3.55268 13.133 3.5 13.0004 3.5C12.8678 3.5 12.7406 3.55268 12.6469 3.64645C12.5531 3.74021 12.5004 3.86739 12.5004 4C12.5004 4.13261 12.5531 4.25979 12.6469 4.35355C12.7406 4.44732 12.8678 4.5 13.0004 4.5C13.133 4.5 13.2602 4.44732 13.354 4.35355C13.4477 4.25979 13.5004 4.13261 13.5004 4ZM15.0004 4.5C15.133 4.5 15.2602 4.44732 15.354 4.35355C15.4477 4.25979 15.5004 4.13261 15.5004 4C15.5004 3.86739 15.4477 3.74021 15.354 3.64645C15.2602 3.55268 15.133 3.5 15.0004 3.5C14.8678 3.5 14.7406 3.55268 14.6469 3.64645C14.5531 3.74021 14.5004 3.86739 14.5004 4C14.5004 4.13261 14.5531 4.25979 14.6469 4.35355C14.7406 4.44732 14.8678 4.5 15.0004 4.5Z" fill="#1E3050"/>
</svg>
