<svg width="20" height="16" viewBox="0 0 20 16" fill="none" xmlns="http://www.w3.org/2000/svg">
<g clip-path="url(#clip0_1_2757)">
<path d="M14.2495 0C12.7308 0 11.4995 1.23125 11.4995 2.75V3.6625L0.390173 12.2063C-0.0473272 12.5437 -0.128577 13.1719 0.205798 13.6094C0.540173 14.0469 1.17142 14.1281 1.60892 13.7937L3.94017 12H8.09955L9.5558 15.5344C9.71205 15.9187 10.1527 16.1 10.5339 15.9438C10.9152 15.7875 11.0995 15.3469 10.9433 14.9656L9.72142 12H10.9995C11.0339 12 11.0652 12 11.0995 12L12.5558 15.5375C12.712 15.9219 13.1527 16.1031 13.5339 15.9469C13.9152 15.7906 14.0995 15.35 13.9433 14.9688L12.6308 11.7812C15.1527 11.0656 16.9995 8.75 16.9995 6V4V3.75L19.5152 3.12188C19.7839 3.05625 19.9464 2.78437 19.8777 2.51562C19.6558 1.625 18.8558 1 17.937 1H16.3714C15.8652 0.390625 15.1027 0 14.2495 0ZM14.2495 2C14.348 2 14.4456 2.0194 14.5366 2.05709C14.6276 2.09478 14.7102 2.15003 14.7799 2.21967C14.8495 2.28931 14.9048 2.37199 14.9425 2.46299C14.9801 2.55398 14.9995 2.65151 14.9995 2.75C14.9995 2.84849 14.9801 2.94602 14.9425 3.03701C14.9048 3.12801 14.8495 3.21069 14.7799 3.28033C14.7102 3.34997 14.6276 3.40522 14.5366 3.44291C14.4456 3.4806 14.348 3.5 14.2495 3.5C14.1511 3.5 14.0535 3.4806 13.9625 3.44291C13.8715 3.40522 13.7889 3.34997 13.7192 3.28033C13.6496 3.21069 13.5943 3.12801 13.5566 3.03701C13.5189 2.94602 13.4995 2.84849 13.4995 2.75C13.4995 2.65151 13.5189 2.55398 13.5566 2.46299C13.5943 2.37199 13.6496 2.28931 13.7192 2.21967C13.7889 2.15003 13.8715 2.09478 13.9625 2.05709C14.0535 2.0194 14.1511 2 14.2495 2Z" fill="#1E3050"/>
</g>
<defs>
<clipPath id="clip0_1_2757">
<rect width="20" height="16" fill="white"/>
</clipPath>
</defs>
</svg>
