<svg width="18" height="16" viewBox="0 0 18 16" fill="none" xmlns="http://www.w3.org/2000/svg">
<g clip-path="url(#clip0_1_2739)">
<path d="M9.67503 4.95312L10.3969 0.61875C10.4563 0.2625 10.7657 0 11.1282 0C11.3625 0 11.5813 0.109375 11.7219 0.296875L12.25 1H13.8782C14.275 1 14.6563 1.15937 14.9375 1.44062L15.5 2H17.25C17.6657 2 18 2.33437 18 2.75V3.5C18 4.88125 16.8813 6 15.5 6H14.5H14H13.3344L13.175 6.95312L9.67503 4.95312ZM13 8.00313V15C13 15.5531 12.5532 16 12 16H11C10.4469 16 10 15.5531 10 15V11.4C9.25003 11.7844 8.40003 12 7.50003 12C6.60003 12 5.75003 11.7844 5.00003 11.4V15C5.00003 15.5531 4.55315 16 4.00003 16H3.00003C2.4469 16 2.00003 15.5531 2.00003 15V7.80625C1.10003 7.46563 0.393779 6.70312 0.150029 5.72813L0.0312787 5.24375C-0.103096 4.70937 0.221904 4.16563 0.759404 4.03125C1.2969 3.89687 1.83753 4.22188 1.9719 4.75938L2.09378 5.24375C2.20315 5.6875 2.60315 6 3.06253 6H4.00003H4.50003H9.49378L13 8.00313ZM14.5 2.5C14.5 2.36739 14.4474 2.24021 14.3536 2.14645C14.2598 2.05268 14.1326 2 14 2C13.8674 2 13.7402 2.05268 13.6465 2.14645C13.5527 2.24021 13.5 2.36739 13.5 2.5C13.5 2.63261 13.5527 2.75979 13.6465 2.85355C13.7402 2.94732 13.8674 3 14 3C14.1326 3 14.2598 2.94732 14.3536 2.85355C14.4474 2.75979 14.5 2.63261 14.5 2.5Z" fill="#1E3050"/>
</g>
<defs>
<clipPath id="clip0_1_2739">
<rect width="18" height="16" fill="white"/>
</clipPath>
</defs>
</svg>
