<svg width="18" height="16" viewBox="0 0 18 16" fill="none" xmlns="http://www.w3.org/2000/svg">
<path d="M8.60038 1.2C8.26913 0.95 7.81913 0.934375 7.46601 1.15313C7.11288 1.37187 6.93788 1.79063 7.01913 2.19688L7.32226 3.71563C6.71601 3.99688 6.16913 4.3375 5.68476 4.7C5.20663 5.05937 4.77851 5.44688 4.41288 5.83437L1.50351 4.1375C1.11288 3.90937 0.616008 3.97188 0.297258 4.29063C-0.0214919 4.60938 -0.0933669 5.10312 0.131633 5.49687L1.56288 8L0.131633 10.5031C-0.0933669 10.8969 -0.0246169 11.3906 0.297258 11.7094C0.619133 12.0281 1.11288 12.0906 1.50351 11.8625L4.41288 10.1656C4.78163 10.55 5.20663 10.9406 5.68476 11.3C6.16913 11.6625 6.71601 12.0031 7.32226 12.2844L7.01913 13.8031C6.93788 14.2094 7.11601 14.625 7.46601 14.8438C7.81601 15.0625 8.26601 15.0469 8.60038 14.7969L11.0254 12.9781C12.741 12.8531 14.1973 12.1344 15.3129 11.2969C16.5379 10.3781 17.4129 9.275 17.8629 8.5C18.0441 8.19063 18.0441 7.80625 17.8629 7.49687C17.4129 6.72187 16.5348 5.61875 15.3129 4.7C14.1941 3.8625 12.741 3.14375 11.0254 3.01875L8.60038 1.2ZM12.0004 8C12.0004 7.73478 12.1057 7.48043 12.2933 7.29289C12.4808 7.10536 12.7352 7 13.0004 7C13.2656 7 13.52 7.10536 13.7075 7.29289C13.895 7.48043 14.0004 7.73478 14.0004 8C14.0004 8.26522 13.895 8.51957 13.7075 8.70711C13.52 8.89464 13.2656 9 13.0004 9C12.7352 9 12.4808 8.89464 12.2933 8.70711C12.1057 8.51957 12.0004 8.26522 12.0004 8Z" fill="#1E3050"/>
</svg>
