<svg width="18" height="16" viewBox="0 0 18 16" fill="none" xmlns="http://www.w3.org/2000/svg">
<g clip-path="url(#clip0_1_2765)">
<path d="M11.5 1C12.8031 1 13.8719 1.99375 13.9906 3.26562L16.6656 4.0875C17.4594 4.33125 18.0031 5.06562 18.0031 5.89687C18.0031 6.57812 17.6375 7.20625 17.0438 7.54375L12.525 10.1094L15.4156 13H17C17.5531 13 18 13.4469 18 14C18 14.5531 17.5531 15 17 15H15C14.7344 15 14.4812 14.8938 14.2937 14.7063L10.8406 11.2563C11.2063 10.1313 10.9406 8.84688 10.0469 7.95312C8.77812 6.68437 6.725 6.68437 5.45625 7.95L3.15625 10.1375C2.95625 10.3281 2.94688 10.6438 3.1375 10.8438C3.32812 11.0437 3.64375 11.05 3.84375 10.8625L6.15 8.66875L6.15312 8.66562L6.15625 8.6625C6.26562 8.55313 6.38438 8.45625 6.50938 8.375C7.38125 7.79688 8.56875 7.89375 9.3375 8.6625C10.1094 9.43438 10.2031 10.6281 9.61875 11.5031C9.5375 11.6219 9.44375 11.7375 9.3375 11.8438L8.18125 13H11C11.5531 13 12 13.4469 12 14C12 14.5531 11.5531 15 11 15H2C0.896875 15 0 14.1031 0 13C0 7.8 3.96875 3.52813 9.04062 3.04688C9.25625 1.88125 10.275 1 11.5 1ZM11.5 4.25C11.5985 4.25 11.696 4.2306 11.787 4.19291C11.878 4.15522 11.9607 4.09997 12.0303 4.03033C12.1 3.96069 12.1552 3.87801 12.1929 3.78701C12.2306 3.69602 12.25 3.59849 12.25 3.5C12.25 3.40151 12.2306 3.30398 12.1929 3.21299C12.1552 3.12199 12.1 3.03931 12.0303 2.96967C11.9607 2.90003 11.878 2.84478 11.787 2.80709C11.696 2.7694 11.5985 2.75 11.5 2.75C11.4015 2.75 11.304 2.7694 11.213 2.80709C11.122 2.84478 11.0393 2.90003 10.9697 2.96967C10.9 3.03931 10.8448 3.12199 10.8071 3.21299C10.7694 3.30398 10.75 3.40151 10.75 3.5C10.75 3.59849 10.7694 3.69602 10.8071 3.78701C10.8448 3.87801 10.9 3.96069 10.9697 4.03033C11.0393 4.09997 11.122 4.15522 11.213 4.19291C11.304 4.2306 11.4015 4.25 11.5 4.25Z" fill="#1E3050"/>
</g>
<defs>
<clipPath id="clip0_1_2765">
<rect width="18" height="16" fill="white"/>
</clipPath>
</defs>
</svg>
