<svg width="16" height="16" viewBox="0 0 16 16" fill="none" xmlns="http://www.w3.org/2000/svg">
<path d="M9 11C9 11.8291 8.77094 12.6421 8.3381 13.3493C7.90526 14.0564 7.28547 14.6302 6.54712 15.0074C5.80877 15.3846 4.98057 15.5504 4.15392 15.4867C3.32727 15.4229 2.53431 15.132 1.86253 14.6461C1.19076 14.1601 0.6663 13.498 0.347027 12.7329C0.0277539 11.9677 -0.0739181 11.1292 0.0532309 10.3099C0.18038 9.4906 0.531407 8.72235 1.06757 8.08994C1.60374 7.45753 2.3042 6.98554 3.09166 6.72606L4.5 11H9Z" fill="#1E3050"/>
<path d="M13.4783 6.95819C14.2777 7.34946 14.9431 7.969 15.3904 8.73845C15.8377 9.50791 16.0468 10.3927 15.9912 11.281C15.9356 12.1693 15.6179 13.0211 15.0782 13.7288C14.5385 14.4365 13.801 14.9683 12.9591 15.2569C12.1172 15.5455 11.2086 15.5779 10.3482 15.3501C9.48784 15.1223 8.71434 14.6445 8.12553 13.9771C7.53672 13.3097 7.15905 12.4826 7.04026 11.6006C6.92147 10.7185 7.06691 9.82107 7.45819 9.02168L11.5 11L13.4783 6.95819Z" fill="#1E3050"/>
<circle cx="4" cy="2.5" r="2" fill="#1E3050"/>
<circle cx="12" cy="2.5" r="2" fill="#1E3050"/>
<path fill-rule="evenodd" clip-rule="evenodd" d="M14 7.5C14 10.8137 11.3137 13.5 8 13.5C4.68629 13.5 2 10.8137 2 7.5C2 4.18629 4.68629 1.5 8 1.5C11.3137 1.5 14 4.18629 14 7.5ZM6 7.5C6 8.05228 5.55228 8.5 5 8.5C4.44772 8.5 4 8.05228 4 7.5C4 6.94772 4.44772 6.5 5 6.5C5.55228 6.5 6 6.94772 6 7.5ZM11 8.5C11.5523 8.5 12 8.05228 12 7.5C12 6.94772 11.5523 6.5 11 6.5C10.4477 6.5 10 6.94772 10 7.5C10 8.05228 10.4477 8.5 11 8.5Z" fill="#1E3050"/>
</svg>
